HIERARCHY
ROOT hip
{
	OFFSET 0.00000 0.00000 0.00000
	CHANNELS 6 Xposition Yposition Zposition Zrotation Yrotation Xrotation
	JOINT lhipjoint
	{
		OFFSET 0 0 0
		CHANNELS 3 Zrotation Yrotation Xrotation
		JOINT lfemur
		{
			OFFSET 1.57314 -1.85774 0.63783
			CHANNELS 3 Zrotation Yrotation Xrotation
			JOINT ltibia
			{
				OFFSET 2.57982 -7.08799 0.00000
				CHANNELS 3 Zrotation Yrotation Xrotation
				JOINT lfoot
				{
					OFFSET 2.63993 -7.25315 0.00000
					CHANNELS 3 Zrotation Yrotation Xrotation
					JOINT ltoes
					{
						OFFSET 0.16864 -0.46332 2.12791
						CHANNELS 3 Zrotation Yrotation Xrotation
						End Site
						{
							OFFSET 0.00000 -0.00000 1.09718
						}
					}
				}
			}
		}
	}
	JOINT rhipjoint
	{
		OFFSET 0 0 0
		CHANNELS 3 Zrotation Yrotation Xrotation
		JOINT rfemur
		{
			OFFSET -1.56006 -1.85774 0.63784
			CHANNELS 3 Zrotation Yrotation Xrotation
			JOINT rtibia
			{
				OFFSET -2.54246 -6.98536 0.00000
				CHANNELS 3 Zrotation Yrotation Xrotation
				JOINT rfoot
				{
					OFFSET -2.65791 -7.30256 0.00000
					CHANNELS 3 Zrotation Yrotation Xrotation
					JOINT rtoes
					{
						OFFSET -0.18435 -0.50650 2.16316
						CHANNELS 3 Zrotation Yrotation Xrotation
						End Site
						{
							OFFSET -0.00000 -0.00000 1.11780
						}
					}
				}
			}
		}
	}
	JOINT lowerback
	{
		OFFSET 0 0 0
		CHANNELS 3 Zrotation Yrotation Xrotation
		JOINT upperback
		{
			OFFSET -0.00136 1.92812 -0.29638
			CHANNELS 3 Zrotation Yrotation Xrotation
			JOINT thorax
			{
				OFFSET -0.00528 1.96223 -0.02928
				CHANNELS 3 Zrotation Yrotation Xrotation
				JOINT lowerneck
				{
					OFFSET 0 0 0
					CHANNELS 3 Zrotation Yrotation Xrotation
					JOINT upperneck
					{
						OFFSET -0.01015 1.75586 0.07797
						CHANNELS 3 Zrotation Yrotation Xrotation
						JOINT head
						{
							OFFSET 0.05540 1.72452 0.04558
							CHANNELS 3 Zrotation Yrotation Xrotation
							End Site
							{
								OFFSET 0.02170 1.79958 0.00864
							}
						}
					}
				}
				JOINT lclavicle
				{
					OFFSET 0 0 0
					CHANNELS 3 Zrotation Yrotation Xrotation
					JOINT lhumerus
					{
						OFFSET 3.16292 1.29277 -0.65728
						CHANNELS 3 Zrotation Yrotation Xrotation
						JOINT lradius
						{
							OFFSET 5.52302 -0.00000 -0.00000
							CHANNELS 3 Zrotation Yrotation Xrotation
							JOINT lwrist
							{
								OFFSET 3.58675 -0.00000 -0.00000
								CHANNELS 3 Zrotation Yrotation Xrotation
								JOINT lhand
								{
									OFFSET 0 0 0
									CHANNELS 3 Zrotation Yrotation Xrotation
									JOINT lfingers
									{
										OFFSET 0.53641 -0.00000 -0.00000
										CHANNELS 3 Zrotation Yrotation Xrotation
										End Site
										{
											OFFSET 0.43247 -0.00000 -0.00000
										}
									}
								}
								JOINT lthumb
								{
									OFFSET 0 0 0
									CHANNELS 3 Zrotation Yrotation Xrotation
									End Site
									{
										OFFSET 0.43907 -0.00000 0.43907
									}
								}
							}
						}
					}
				}
				JOINT rclavicle
				{
					OFFSET 0 0 0
					CHANNELS 3 Zrotation Yrotation Xrotation
					JOINT rhumerus
					{
						OFFSET -3.08296 1.43376 -0.52927
						CHANNELS 3 Zrotation Yrotation Xrotation
						JOINT rradius
						{
							OFFSET -5.84780 -0.00000 0.00000
							CHANNELS 3 Zrotation Yrotation Xrotation
							JOINT rwrist
							{
								OFFSET -3.62717 -0.00000 -0.00000
								CHANNELS 3 Zrotation Yrotation Xrotation
								JOINT rhand
								{
									OFFSET 0 0 0
									CHANNELS 3 Zrotation Yrotation Xrotation
									JOINT rfingers
									{
										OFFSET -0.65052 -0.00000 -0.00000
										CHANNELS 3 Zrotation Yrotation Xrotation
										End Site
										{
											OFFSET -0.52446 -0.00000 -0.00000
										}
									}
								}
								JOINT rthumb
								{
									OFFSET 0 0 0
									CHANNELS 3 Zrotation Yrotation Xrotation
									End Site
									{
										OFFSET -0.53247 -0.00000 0.53247
									}
								}
							}
						}
					}
				}
			}
		}
	}
}
MOTION
Frames: 15
Frame Time: 0.033333
4.2516 -6.7450 -9.0357 6.6613 27.8091 -15.2503 1.2073 12.9834 4.9380 1.0362 -3.4386 16.4404 -9.7015 19.1344 11.1438 5.5267 -9.0395 16.1961 -13.3515 -10.1446 -6.5679 -20.6305 -26.4746 15.8668 17.9833 23.9550 -12.9405 16.7269 -26.1447 4.6285 -20.3112 9.6208 -34.7378 10.2806 -13.6331 -2.6358 5.2678 -3.1693 9.7956 -1.9240 -5.4189 -1.9294 7.8683 5.9224 -4.3388 -6.6120 -4.2210 -10.8499 4.1345 4.2200 -3.8897 8.6779 3.4942 -9.4515 -2.2436 -3.8918 -6.3356 -4.6405 0.3604 1.8700 5.6284 -22.6478 -5.6731 16.1400 -8.1805 -10.8942 9.6162 3.8922 0.8456 -3.4718 -3.3173 0.0397 -2.4636 0.0190 1.8087 0.0000 2.4848 8.1625 1.1626 0.0000 0.0000 0.0000 0.0000 0.0000 0.0000 0.0000 0.0000 0.0000 0.0000 0.0000 0.0000 0.0000 0.0000 0.0000 0.0000 0.0000
-1.4008 12.7275 -21.9790 4.6067 12.5940 -6.3017 2.2341 -42.0822 -14.7300 0.7996 4.5199 -29.9002 12.3306 -9.7374 -16.6365 -5.7330 10.7579 -23.5673 26.6363 23.3744 9.9298 33.0286 44.1063 -29.9016 -39.3911 -39.8067 24.8198 -31.1364 48.4606 -10.1010 40.7050 -18.4791 63.6434 -19.3669 23.6300 0.9478 -4.1610 8.5813 -17.0391 2.4106 10.6534 6.7444 -11.0301 -7.5533 3.1865 11.6878 5.9338 18.3158 -4.6782 -0.3091 -0.8579 -5.0991 0.8101 5.4916 3.6699 1.8451 7.2958 4.9107 -0.1749 -1.5173 -4.3355 18.7945 1.5596 -10.6176 8.8656 11.8213 -5.9230 -2.6473 -0.3315 3.3703 3.0790 -0.0439 1.7963 -0.1586 -1.4373 -0.0000 -1.5309 0.2376 -4.2220 0.0000 0.0000 0.0000 0.0000 0.0000 0.0000 0.0000 0.0000 0.0000 0.0000 0.0000 0.0000 0.0000 0.0000 0.0000 0.0000 0.0000
-5.3061 -7.8014 11.6603 -2.8656 -8.9251 1.9412 -0.6360 36.4613 13.6277 0.1006 -4.7714 27.9384 -11.0627 10.5213 14.3703 5.7058 -10.2513 21.6733 -23.6624 -22.3365 -8.9127 -31.4505 -40.0703 26.8141 35.0213 35.2087 -22.3563 28.6200 -42.8114 9.8203 -36.3227 15.5936 -58.3440 18.6212 -20.8798 -1.9297 4.4711 -5.4804 13.7358 -1.5047 -6.9577 -4.9863 11.8061 9.0663 -7.9139 -8.0489 -6.6017 -17.9223 9.0354 6.2807 -1.4160 10.6105 2.5253 -11.3653 -6.2498 -5.5194 -9.7257 -6.1904 0.5650 3.0328 7.9751 -32.7672 -7.5489 20.3070 -15.1246 -19.2814 11.5689 4.7859 0.9035 -5.4257 -5.0708 0.0335 -3.4516 0.1083 2.5743 0.0000 3.7015 -7.2587 0.5479 0.0000 0.0000 0.0000 0.0000 0.0000 0.0000 0.0000 0.0000 0.0000 0.0000 0.0000 0.0000 0.0000 0.0000 0.0000 0.0000 0.0000
-10.1973 -0.2545 3.6040 -0.1374 -2.0224 -0.4990 0.7720 -4.4368 -1.5798 0.9350 0.0614 -5.7102 2.6689 -4.5827 -4.0261 -0.7286 1.3134 -4.9012 4.0740 1.9280 1.5002 3.7252 8.7840 -4.9566 -6.2335 -8.3657 4.1441 -4.6662 9.5326 -1.1402 6.3495 -4.7937 9.5200 -3.6967 2.2514 -1.2477 -0.7963 4.4353 -3.5888 1.6073 4.5300 2.2356 -0.4465 -0.0255 -2.2411 1.9879 0.0987 1.1217 3.3611 8.4846 -2.3023 4.2588 1.8253 -4.8304 -3.4844 -3.3508 -2.5166 -1.1838 0.3087 1.4258 3.4896 -13.4735 -2.0993 7.8592 -6.8559 -8.1932 4.5422 1.7479 0.2012 -1.9794 -1.8894 -0.0265 -1.4008 0.0236 1.0087 -0.0000 4.0319 -2.1373 -0.6640 0.0000 0.0000 0.0000 0.0000 0.0000 0.0000 0.0000 0.0000 0.0000 0.0000 0.0000 0.0000 0.0000 0.0000 0.0000 0.0000 0.0000
-2.5727 1.8304 -13.2146 4.7553 17.4232 -13.4631 2.0738 -6.1799 -0.5602 2.0924 1.1690 2.4141 -3.0557 7.1398 1.1705 2.4840 -2.6462 1.8532 1.4525 -0.2211 1.1317 -2.2308 -6.9856 3.9787 -0.3047 2.3901 -0.0240 1.3615 -3.0408 1.7475 -0.0670 0.8761 -1.2616 -1.2089 0.6254 3.0694 -0.2197 -2.7486 1.9289 -1.1856 0.8103 2.4742 3.3440 3.6487 -5.9505 0.8666 -1.7333 -2.1517 4.7853 5.9900 -2.7188 6.8979 3.5685 -7.2880 -3.1175 -4.0540 -3.6055 -2.2237 0.4330 1.6161 4.4737 -17.3482 -4.9766 11.1569 -8.0919 -9.9404 6.4000 2.4136 0.5248 -2.6120 -2.5257 -0.0098 -1.9055 0.0066 1.3584 -0.0000 -7.0639 4.9309 3.3845 0.0000 0.0000 0.0000 0.0000 0.0000 0.0000 0.0000 0.0000 0.0000 0.0000 0.0000 0.0000 0.0000 0.0000 0.0000 0.0000 0.0000
4.2313 2.9867 -4.5286 -1.7929 -7.0918 4.4601 0.1820 -15.7350 -5.2437 -0.8608 2.8656 -12.2676 4.1971 -11.3126 -8.9032 -3.0727 5.5076 -11.4542 12.3435 8.1607 6.1250 15.8175 19.5128 -12.9345 -15.5635 -18.8076 10.3470 -13.5511 18.5612 -3.9780 16.0901 -8.0418 29.9450 -9.9709 10.0361 3.1650 -4.3144 1.6631 -6.9867 0.5845 4.5250 2.0015 -5.5109 -4.8547 4.0578 0.0296 3.3972 8.2235 -3.7028 1.8182 0.3028 -4.6071 -1.8620 4.4382 1.0854 1.7375 3.2920 2.5341 -0.3315 -1.0432 -2.5629 11.2883 3.8063 -8.9271 3.2539 4.6068 -5.3253 -2.1983 -0.6128 1.7718 1.7003 -0.0274 1.2960 0.0077 -0.9090 -0.0000 3.7665 1.1093 1.5506 0.0000 0.0000 0.0000 0.0000 0.0000 0.0000 0.0000 0.0000 0.0000 0.0000 0.0000 0.0000 0.0000 0.0000 0.0000 0.0000 0.0000
3.5259 1.2002 -10.1568 6.3355 14.0489 -13.2057 4.4959 -6.0617 0.1896 2.0592 1.2341 1.0048 1.2459 4.5767 0.4621 1.2264 -1.3471 2.6552 2.1882 1.1599 1.4448 0.2964 -4.1520 -0.6533 -1.9014 -0.2879 2.0145 -1.4788 0.3997 1.8581 1.0386 0.6324 2.7823 2.6095 3.7281 -1.1356 2.3335 1.3370 -3.2901 -0.7503 0.3514 -1.0275 -0.4786 -0.5277 0.4907 1.0876 0.6900 1.4157 -1.4001 -3.0613 0.6982 -1.4136 -0.1068 2.0526 1.6560 1.1969 1.5171 0.4868 -0.1003 -0.6815 -1.5031 5.4220 3.3282 -3.7402 2.5939 3.1008 -2.1504 -0.8576 -0.2892 0.9189 0.8466 -0.0129 0.6829 0.0246 -0.4826 0.0000 5.0500 4.2534 2.4035 0.0000 0.0000 0.0000 0.0000 0.0000 0.0000 0.0000 0.0000 0.0000 0.0000 0.0000 0.0000 0.0000 0.0000 0.0000 0.0000 0.0000
-3.3616 -5.3239 19.9831 -4.3135 -10.9463 7.7647 -3.1124 24.3942 6.9302 -0.1674 -2.6815 14.0162 -2.9771 8.5897 11.1099 2.4403 -4.5746 11.6007 -15.7454 -9.3034 -7.6829 -17.0215 -22.9211 18.0688 20.3242 22.9247 -12.9739 17.2778 -21.6813 5.8263 -20.1341 11.6135 -37.5313 13.6534 -10.4707 -2.7637 4.4780 -3.2138 7.5744 -0.1554 -5.9251 -5.2185 4.1105 4.3067 0.5551 -6.2415 -2.5561 -8.2705 -1.1902 -6.6816 -0.3891 0.1912 1.0658 -1.0675 3.3134 1.3029 -1.1157 -1.4476 -0.2981 -0.1263 0.0011 0.1850 -1.9972 0.0402 -0.0449 -0.3655 -0.1342 -0.0284 0.2304 -0.2539 -0.2491 0.0423 0.0041 0.0205 0.0902 0.0000 -5.6989 -0.6429 -2.3135 0.0000 0.0000 0.0000 0.0000 0.0000 0.0000 0.0000 0.0000 0.0000 0.0000 0.0000 0.0000 0.0000 0.0000 0.0000 0.0000 0.0000
16.2662 -6.7914 -13.1630 -3.4779 -4.7203 -1.2802 1.1011 27.4959 12.8449 1.7603 -2.9487 23.6799 -9.9987 12.9368 15.5398 5.9960 -9.4110 19.8532 -21.9786 -18.6256 -7.8134 -27.6494 -38.6974 25.4202 31.4805 34.1747 -19.4082 24.3940 -38.8437 7.7103 -32.3539 13.6195 -53.0368 11.8933 -21.6542 1.5963 3.0105 -8.4538 17.7355 -1.9710 -10.2312 -2.7216 9.8370 6.9762 -4.7677 -7.6630 -5.4348 -15.6800 6.1381 1.7866 1.6694 5.3533 -1.1641 -5.6134 -5.4268 -2.4949 -6.8427 -3.8869 0.2938 1.8181 4.8191 -18.9645 -5.3253 9.7164 -11.1877 -13.9713 5.0326 2.1541 0.4250 -3.6100 -3.3176 0.0379 -1.9538 0.1272 1.5301 0.0000 11.4861 12.7661 11.2606 0.0000 0.0000 0.0000 0.0000 0.0000 0.0000 0.0000 0.0000 0.0000 0.0000 0.0000 0.0000 0.0000 0.0000 0.0000 0.0000 0.0000
-0.5426 -2.6461 16.2720 -6.7009 -19.5893 12.7719 -3.3521 30.4126 9.0028 -0.9068 -3.7170 17.1021 -4.1243 5.1777 10.9179 1.6286 -4.4263 13.1239 -19.6148 -13.0659 -8.8455 -19.9947 -23.3637 16.7704 25.0237 25.0609 -15.5380 19.3825 -28.2910 6.6685 -25.8558 11.3455 -41.3305 14.8776 -15.0701 -4.0602 4.0057 -2.1312 9.2642 -0.3355 -7.4452 -6.2402 4.3568 3.0606 1.7264 -4.7241 -2.7190 -10.1092 -1.3786 -8.8049 1.9580 -1.5095 -1.5382 1.8554 2.5747 2.4391 -0.7175 -0.8548 -0.2926 -0.4406 -1.3182 4.5545 -1.6957 -2.2097 2.5560 2.7333 -1.3885 -0.3709 0.2140 0.3304 0.3520 0.0568 0.4038 -0.0007 -0.2495 0.0000 -2.5400 3.3376 -0.3601 0.0000 0.0000 0.0000 0.0000 0.0000 0.0000 0.0000 0.0000 0.0000 0.0000 0.0000 0.0000 0.0000 0.0000 0.0000 0.0000 0.0000
1.9293 -1.9908 -9.4471 3.2333 18.8672 -13.3792 2.5359 -4.8378 -2.1305 -0.7276 2.0234 1.5279 -3.4071 4.3189 0.4262 1.3069 -1.8763 2.2256 4.2403 -1.8953 2.0450 -1.4890 -4.1119 0.6480 -0.4880 -0.3405 1.4741 -0.1488 -1.6134 3.9565 -0.7372 -1.5142 1.8376 0.1326 -0.2429 -1.3753 2.8315 5.4599 -1.6408 1.0709 2.1880 1.0748 0.4873 0.7161 -3.0913 0.9508 -0.2676 -0.2697 4.0205 4.8762 0.6928 1.6347 -0.0887 -1.8843 -3.0838 -1.8881 -1.7755 -1.1042 0.2817 0.9445 2.2982 -8.7953 -0.0872 3.6301 -5.9224 -6.9760 1.8383 0.7188 -0.1101 -1.4671 -1.3775 -0.0275 -0.8176 0.0692 0.6250 0.0000 1.9901 2.0919 -8.6326 0.0000 0.0000 0.0000 0.0000 0.0000 0.0000 0.0000 0.0000 0.0000 0.0000 0.0000 0.0000 0.0000 0.0000 0.0000 0.0000 0.0000
7.7120 -8.6158 -1.1306 -1.0311 7.3251 0.0129 -1.0010 11.0306 3.4800 -0.7479 -2.1496 10.4225 -6.7756 9.5724 7.3156 3.8708 -5.6971 10.1075 -7.9797 -8.7748 -3.2928 -13.2990 -16.9083 11.7723 12.8423 15.1985 -8.1966 10.5908 -14.8907 2.7389 -13.4153 5.1035 -24.8170 6.1706 -10.4480 -1.9535 4.2707 0.6086 6.6028 0.4204 -3.3405 -1.5352 3.8086 3.7202 -1.9545 -3.2326 -2.5849 -8.2426 1.9778 2.6296 -3.7654 6.0563 2.6006 -6.7524 -0.9526 -2.4882 -4.1698 -2.9462 0.1705 1.4065 3.8579 -15.2032 -4.6824 10.5321 -6.1059 -7.8988 6.1875 2.4659 0.6171 -2.3903 -2.3196 0.0271 -1.6765 0.0140 1.2350 0.0000 1.6381 2.2642 -4.6241 0.0000 0.0000 0.0000 0.0000 0.0000 0.0000 0.0000 0.0000 0.0000 0.0000 0.0000 0.0000 0.0000 0.0000 0.0000 0.0000 0.0000
3.0398 6.1392 -14.8969 0.2348 -4.2468 -7.3548 4.1461 -37.8885 -12.1923 0.1701 7.6048 -28.0747 12.3887 -19.6102 -16.7644 -6.6238 12.1410 -24.7074 28.7764 19.5970 12.9170 33.9037 39.7692 -26.0645 -35.3344 -40.0880 23.6779 -29.3112 44.6124 -7.1579 38.2846 -17.1236 63.4844 -21.4646 24.3300 6.5898 -7.9736 3.0079 -15.0418 1.1495 10.4862 7.6002 -9.4822 -6.9661 2.8096 9.8554 5.8491 16.1227 -2.7670 4.5569 0.8681 -4.5992 -1.8061 5.6608 -0.8733 0.9591 5.2941 4.5471 -0.1168 -1.0314 -3.1103 13.6452 4.7061 -11.2989 3.0549 5.0055 -6.8632 -2.9617 -0.8103 2.2993 2.1561 -0.0776 1.5427 -0.0107 -1.1640 -0.0000 -1.6302 5.5226 6.5339 0.0000 0.0000 0.0000 0.0000 0.0000 0.0000 0.0000 0.0000 0.0000 0.0000 0.0000 0.0000 0.0000 0.0000 0.0000 0.0000 0.0000
6.1062 -4.9916 11.3112 -6.5796 -25.1469 20.1117 -3.6465 35.3604 14.9192 0.0535 -6.4988 21.8817 -6.4737 8.0456 14.5396 4.5537 -7.6503 18.9417 -25.4487 -17.1712 -9.6103 -25.3458 -31.9372 23.4536 31.1509 33.7003 -20.9227 23.3998 -32.9552 -0.0323 -29.3148 15.2714 -56.1294 13.5768 -20.3096 0.6543 1.9169 -12.1339 17.3760 -1.9121 -12.3393 -4.8913 8.0906 6.2956 -2.3181 -7.0074 -5.2773 -13.8365 1.7842 -6.0792 0.6569 2.9596 0.6365 -3.6362 -0.1054 -0.1289 -3.8357 -2.7637 0.0416 0.5778 1.8130 -7.9508 -2.0836 4.9465 -3.3567 -4.9341 2.7126 1.1840 0.3750 -1.6241 -1.4964 0.0484 -0.7809 0.0868 0.6649 0.0000 4.6040 2.6054 -0.7885 0.0000 0.0000 0.0000 0.0000 0.0000 0.0000 0.0000 0.0000 0.0000 0.0000 0.0000 0.0000 0.0000 0.0000 0.0000 0.0000 0.0000
-17.0942 4.8588 11.8549 2.5833 8.1485 -5.9594 -0.7273 4.1214 0.1990 1.9821 0.9029 3.6992 -1.3790 4.4398 2.0743 1.4508 -2.4032 2.6337 -3.2134 -1.6580 -0.9106 -4.0667 -7.8062 4.4289 4.1851 5.3109 -1.5768 2.9065 -7.3217 2.5154 -5.2104 2.5101 -5.6403 0.9470 -3.1814 0.2770 0.7208 -1.2287 2.8379 -1.2269 -2.2481 -1.2123 0.7246 -0.4103 3.5531 -3.4285 0.1434 -2.5705 -3.3413 -1.8442 -0.9334 -0.8599 -1.3853 1.3970 1.4827 1.4520 0.0474 -0.0640 -0.2046 -0.5787 -1.2617 4.2709 0.0995 -0.5999 4.3228 4.8586 -0.0167 0.1337 0.1502 0.7624 0.7213 0.0380 0.3496 -0.0572 -0.2931 0.0000 -2.6001 0.1326 6.5217 0.0000 0.0000 0.0000 0.0000 0.0000 0.0000 0.0000 0.0000 0.0000 0.0000 0.0000 0.0000 0.0000 0.0000 0.0000 0.0000 0.0000
